<svg width="57" height="51" viewBox="0 0 57 51" fill="none" xmlns="http://www.w3.org/2000/svg">
<path d="M55.9743 39.7908L34.9263 3.69843C33.5752 1.38512 31.1715 0 28.5018 0C25.8321 0 23.4282 1.37888 22.0839 3.69173L1.02907 39.7909C-0.334306 42.1228 -0.340987 44.9126 0.99722 47.2573C2.34157 49.6021 4.75157 51 7.44696 51H49.5441C52.2395 51 54.6491 49.6021 55.9939 47.2573C57.3449 44.9121 57.332 42.1228 55.9753 39.7909L55.9743 39.7908ZM52.9109 45.4775C52.2132 46.6978 50.9578 47.4282 49.5497 47.4282L7.45253 47.4286C6.04442 47.4286 4.78897 46.6977 4.09137 45.478C3.39375 44.2577 3.39994 42.8031 4.1042 41.5891L25.1522 5.49668C25.856 4.28925 27.1053 3.57121 28.4944 3.57121C29.8834 3.57121 31.1389 4.28926 31.8365 5.49668L52.8845 41.5891C53.6011 42.8026 53.6073 44.2579 52.9097 45.4776L52.9109 45.4775ZM28.5017 10.5857C27.5187 10.5857 26.7199 11.3862 26.7199 12.371V30.3729C26.7199 31.3578 27.5188 32.1583 28.5017 32.1583C29.4846 32.1583 30.2835 31.3578 30.2835 30.3729V12.3721C30.2835 11.3806 29.4846 10.5864 28.5017 10.5864V10.5857ZM28.5017 36.543C27.5187 36.543 26.7199 37.3435 26.7199 38.3283V38.627C26.7199 39.6119 27.5188 40.4124 28.5017 40.4124C29.4846 40.4124 30.2835 39.6119 30.2835 38.627V38.3283C30.2835 37.3434 29.4846 36.543 28.5017 36.543Z" fill="#D64045"/>
</svg>
